<svg width="225" height="48" viewBox="0 0 225 48" fill="none" xmlns="http://www.w3.org/2000/svg">
<path d="M35.875 39V9.90909H48.4318C50.5909 9.90909 52.4801 10.3021 54.0994 11.0881C55.7188 11.8741 56.9782 13.0057 57.8778 14.483C58.7775 15.9602 59.2273 17.7311 59.2273 19.7955C59.2273 21.8788 58.7633 23.6354 57.8352 25.0653C56.9167 26.4953 55.6241 27.5748 53.9574 28.304C52.3002 29.0331 50.3636 29.3977 48.1477 29.3977H40.6477V23.2614H46.5568C47.4848 23.2614 48.2756 23.1477 48.929 22.9205C49.5919 22.6837 50.0985 22.3097 50.4489 21.7983C50.8087 21.2869 50.9886 20.6193 50.9886 19.7955C50.9886 18.9621 50.8087 18.285 50.4489 17.7642C50.0985 17.2339 49.5919 16.8456 48.929 16.5994C48.2756 16.3437 47.4848 16.2159 46.5568 16.2159H43.7727V39H35.875ZM52.9205 25.6477L60.1932 39H51.6136L44.5114 25.6477H52.9205ZM72.6932 39.3977C70.3636 39.3977 68.3561 38.9527 66.6705 38.0625C64.9943 37.1629 63.7017 35.875 62.7926 34.1989C61.893 32.5133 61.4432 30.4962 61.4432 28.1477C61.4432 25.8939 61.8977 23.9242 62.8068 22.2386C63.7159 20.553 64.9991 19.2415 66.6562 18.304C68.3134 17.3665 70.2689 16.8977 72.5227 16.8977C74.1705 16.8977 75.6619 17.1534 76.9972 17.6648C78.3324 18.1761 79.4735 18.9195 80.4205 19.8949C81.3674 20.8608 82.0966 22.035 82.608 23.4176C83.1193 24.8002 83.375 26.358 83.375 28.0909V29.9091H63.8864V25.5909H76.1591C76.1496 24.9659 75.9886 24.4167 75.6761 23.9432C75.3731 23.4602 74.9612 23.0862 74.4403 22.821C73.929 22.5464 73.3466 22.4091 72.6932 22.4091C72.0587 22.4091 71.4763 22.5464 70.946 22.821C70.4157 23.0862 69.9896 23.4555 69.6676 23.929C69.3551 24.4025 69.1894 24.9564 69.1705 25.5909V30.25C69.1705 30.9508 69.3172 31.5758 69.6108 32.125C69.9044 32.6742 70.3258 33.1051 70.875 33.4176C71.4242 33.7301 72.0871 33.8864 72.8636 33.8864C73.4034 33.8864 73.8958 33.8106 74.3409 33.6591C74.7955 33.5076 75.1837 33.2898 75.5057 33.0057C75.8277 32.7121 76.0644 32.3617 76.2159 31.9545H83.375C83.1288 33.4697 82.5464 34.786 81.6278 35.9034C80.7093 37.0114 79.4924 37.8731 77.9773 38.4886C76.4716 39.0947 74.7102 39.3977 72.6932 39.3977ZM92.6541 39.3409C91.2621 39.3409 90.031 39.1136 88.9609 38.6591C87.9003 38.1951 87.067 37.4943 86.4609 36.5568C85.8549 35.6193 85.5518 34.4261 85.5518 32.9773C85.5518 31.7841 85.7554 30.7661 86.1626 29.9233C86.5698 29.071 87.138 28.375 87.8672 27.8352C88.5964 27.2955 89.4439 26.8835 90.4098 26.5994C91.3852 26.3153 92.4363 26.1307 93.5632 26.0455C94.7848 25.9508 95.7649 25.8371 96.5036 25.7045C97.2517 25.5625 97.7914 25.3684 98.1229 25.1222C98.4543 24.8665 98.62 24.5303 98.62 24.1136V24.0568C98.62 23.4886 98.4022 23.053 97.9666 22.75C97.531 22.447 96.9723 22.2955 96.2905 22.2955C95.5424 22.2955 94.9316 22.4612 94.4581 22.7926C93.9941 23.1146 93.7147 23.6117 93.62 24.2841H86.4041C86.4988 22.9583 86.9202 21.7367 87.6683 20.6193C88.4259 19.4924 89.5291 18.5928 90.978 17.9205C92.4268 17.2386 94.2356 16.8977 96.4041 16.8977C97.9666 16.8977 99.3681 17.0824 100.609 17.4517C101.849 17.8116 102.905 18.3182 103.776 18.9716C104.647 19.6155 105.31 20.3731 105.765 21.2443C106.229 22.1061 106.461 23.0436 106.461 24.0568V39H99.1314V35.9318H98.9609C98.5253 36.7462 97.995 37.4044 97.37 37.9062C96.7545 38.4081 96.049 38.7727 95.2536 39C94.4676 39.2273 93.6011 39.3409 92.6541 39.3409ZM95.2109 34.3977C95.8075 34.3977 96.3662 34.2746 96.8871 34.0284C97.4174 33.7822 97.8482 33.4271 98.1797 32.9631C98.5111 32.4991 98.6768 31.9356 98.6768 31.2727V29.4545C98.4685 29.5398 98.246 29.6203 98.0092 29.696C97.782 29.7718 97.5357 29.8428 97.2706 29.9091C97.0149 29.9754 96.7403 30.0369 96.4467 30.0938C96.1626 30.1506 95.8643 30.2027 95.5518 30.25C94.9458 30.3447 94.4486 30.5009 94.0604 30.7188C93.6816 30.9271 93.3975 31.1875 93.2081 31.5C93.0282 31.803 92.9382 32.1439 92.9382 32.5227C92.9382 33.1288 93.1513 33.5928 93.5774 33.9148C94.0036 34.2367 94.5481 34.3977 95.2109 34.3977ZM120.719 39.3977C118.351 39.3977 116.325 38.929 114.639 37.9915C112.954 37.0445 111.661 35.7282 110.761 34.0426C109.862 32.3475 109.412 30.3826 109.412 28.1477C109.412 25.9129 109.862 23.9527 110.761 22.267C111.661 20.572 112.954 19.2557 114.639 18.3182C116.325 17.3712 118.351 16.8977 120.719 16.8977C122.859 16.8977 124.71 17.286 126.273 18.0625C127.845 18.8295 129.062 19.9186 129.923 21.3295C130.785 22.7311 131.221 24.3788 131.23 26.2727H123.957C123.853 25.1269 123.522 24.2557 122.963 23.6591C122.414 23.053 121.704 22.75 120.832 22.75C120.151 22.75 119.554 22.9489 119.043 23.3466C118.531 23.7348 118.134 24.3267 117.849 25.1222C117.565 25.9081 117.423 26.8977 117.423 28.0909C117.423 29.2841 117.565 30.2784 117.849 31.0739C118.134 31.8598 118.531 32.4517 119.043 32.8494C119.554 33.2377 120.151 33.4318 120.832 33.4318C121.41 33.4318 121.921 33.2992 122.366 33.0341C122.812 32.7595 123.171 32.3617 123.446 31.8409C123.73 31.3106 123.901 30.6667 123.957 29.9091H131.23C131.202 31.8314 130.761 33.5076 129.909 34.9375C129.057 36.358 127.849 37.4564 126.287 38.233C124.734 39.0095 122.878 39.3977 120.719 39.3977ZM147.477 17.1818V22.8636H133.102V17.1818H147.477ZM135.886 11.9545H143.727V31.983C143.727 32.286 143.779 32.5417 143.883 32.75C143.987 32.9489 144.148 33.1004 144.366 33.2045C144.584 33.2992 144.863 33.3466 145.204 33.3466C145.441 33.3466 145.715 33.3182 146.028 33.2614C146.35 33.2045 146.586 33.1572 146.738 33.1193L147.874 38.6307C147.524 38.7348 147.022 38.8627 146.369 39.0142C145.725 39.1657 144.958 39.2652 144.067 39.3125C142.268 39.4072 140.758 39.2225 139.536 38.7585C138.315 38.285 137.396 37.5417 136.781 36.5284C136.165 35.5152 135.867 34.2462 135.886 32.7216V11.9545Z" fill="#4EA8DE"/>
<path d="M161.188 39.3977C158.82 39.3977 156.794 38.929 155.108 37.9915C153.422 37.0445 152.13 35.7282 151.23 34.0426C150.33 32.3475 149.881 30.3826 149.881 28.1477C149.881 25.9129 150.33 23.9527 151.23 22.267C152.13 20.572 153.422 19.2557 155.108 18.3182C156.794 17.3712 158.82 16.8977 161.188 16.8977C163.555 16.8977 165.581 17.3712 167.267 18.3182C168.953 19.2557 170.245 20.572 171.145 22.267C172.045 23.9527 172.494 25.9129 172.494 28.1477C172.494 30.3826 172.045 32.3475 171.145 34.0426C170.245 35.7282 168.953 37.0445 167.267 37.9915C165.581 38.929 163.555 39.3977 161.188 39.3977ZM161.244 33.6023C161.907 33.6023 162.48 33.3797 162.963 32.9347C163.446 32.4896 163.82 31.8551 164.085 31.0312C164.35 30.2074 164.483 29.2273 164.483 28.0909C164.483 26.9451 164.35 25.965 164.085 25.1506C163.82 24.3267 163.446 23.6922 162.963 23.2472C162.48 22.8021 161.907 22.5795 161.244 22.5795C160.544 22.5795 159.942 22.8021 159.44 23.2472C158.938 23.6922 158.555 24.3267 158.29 25.1506C158.025 25.965 157.892 26.9451 157.892 28.0909C157.892 29.2273 158.025 30.2074 158.29 31.0312C158.555 31.8551 158.938 32.4896 159.44 32.9347C159.942 33.3797 160.544 33.6023 161.244 33.6023ZM183.574 39.2841C182.021 39.2841 180.591 38.8769 179.284 38.0625C177.987 37.2481 176.945 36.0123 176.159 34.3551C175.383 32.6979 174.994 30.6098 174.994 28.0909C174.994 25.4583 175.402 23.3182 176.216 21.6705C177.04 20.0227 178.1 18.8153 179.398 18.0483C180.705 17.2812 182.078 16.8977 183.517 16.8977C184.597 16.8977 185.544 17.0871 186.358 17.4659C187.172 17.8352 187.854 18.3324 188.403 18.9574C188.953 19.5729 189.369 20.25 189.653 20.9886H189.767V9.90909H197.608V39H189.824V35.4205H189.653C189.35 36.1591 188.915 36.822 188.347 37.4091C187.788 37.9867 187.106 38.446 186.301 38.7869C185.506 39.1184 184.597 39.2841 183.574 39.2841ZM186.472 33.2614C187.191 33.2614 187.807 33.053 188.318 32.6364C188.839 32.2102 189.237 31.6136 189.511 30.8466C189.795 30.0701 189.938 29.1515 189.938 28.0909C189.938 27.0114 189.795 26.0881 189.511 25.321C189.237 24.5445 188.839 23.9527 188.318 23.5455C187.807 23.1288 187.191 22.9205 186.472 22.9205C185.752 22.9205 185.136 23.1288 184.625 23.5455C184.123 23.9527 183.735 24.5445 183.46 25.321C183.195 26.0881 183.062 27.0114 183.062 28.0909C183.062 29.1705 183.195 30.0985 183.46 30.875C183.735 31.642 184.123 32.2339 184.625 32.6506C185.136 33.0578 185.752 33.2614 186.472 33.2614ZM211.969 39.3977C209.601 39.3977 207.575 38.929 205.889 37.9915C204.204 37.0445 202.911 35.7282 202.011 34.0426C201.112 32.3475 200.662 30.3826 200.662 28.1477C200.662 25.9129 201.112 23.9527 202.011 22.267C202.911 20.572 204.204 19.2557 205.889 18.3182C207.575 17.3712 209.601 16.8977 211.969 16.8977C214.336 16.8977 216.363 17.3712 218.048 18.3182C219.734 19.2557 221.027 20.572 221.926 22.267C222.826 23.9527 223.276 25.9129 223.276 28.1477C223.276 30.3826 222.826 32.3475 221.926 34.0426C221.027 35.7282 219.734 37.0445 218.048 37.9915C216.363 38.929 214.336 39.3977 211.969 39.3977ZM212.026 33.6023C212.688 33.6023 213.261 33.3797 213.744 32.9347C214.227 32.4896 214.601 31.8551 214.866 31.0312C215.132 30.2074 215.264 29.2273 215.264 28.0909C215.264 26.9451 215.132 25.965 214.866 25.1506C214.601 24.3267 214.227 23.6922 213.744 23.2472C213.261 22.8021 212.688 22.5795 212.026 22.5795C211.325 22.5795 210.723 22.8021 210.222 23.2472C209.72 23.6922 209.336 24.3267 209.071 25.1506C208.806 25.965 208.673 26.9451 208.673 28.0909C208.673 29.2273 208.806 30.2074 209.071 31.0312C209.336 31.8551 209.72 32.4896 210.222 32.9347C210.723 33.3797 211.325 33.6023 212.026 33.6023Z" fill="#8284FA"/>
<g clip-path="url(#clip0_43_109)">
<path d="M11.0215 12.933C14.1472 16.9011 15.8158 21.7944 15.7553 26.8155V28.0141L16.7865 28.6416C18.119 29.4482 19.1127 30.6993 19.5866 32.1669C19.1705 31.8605 18.7352 31.5803 18.2833 31.3278L15.5333 29.7838L15.0391 32.9001C14.9963 33.1755 14.9389 33.4485 14.8672 33.718H7.16151C7.04692 33.3655 6.95382 33.0129 6.86789 32.6463L6.24484 29.8261L3.70968 31.2362C3.28615 31.473 2.87723 31.7344 2.48507 32.0188C2.96824 30.5682 3.94123 29.3242 5.24224 28.4935L6.22336 27.866V26.7521C6.24106 21.7513 7.92967 16.8952 11.0287 12.933H11.0215ZM11.0287 10C10.868 10.0004 10.7128 10.058 10.5918 10.1622L10.5274 10.2186C6.39778 14.7656 4.10466 20.6454 4.08208 26.745C2.32967 27.8643 1.03251 29.5543 0.417263 31.5197C-0.197979 33.485 -0.0921719 35.6007 0.716194 37.4971C1.56776 35.6455 2.99131 34.1058 4.7839 33.0975C4.96368 33.8642 5.2031 34.6161 5.50005 35.3467C5.53771 35.4871 5.62118 35.6114 5.73763 35.7006C5.85408 35.7898 5.99706 35.8388 6.14458 35.8402H16.0847C16.2852 35.8402 16.4857 35.6498 16.586 35.3537C16.8758 34.6592 17.0778 33.9322 17.1875 33.1892C18.9836 34.1932 20.4083 35.7342 21.2553 37.5887C22.1124 35.7017 22.2451 33.5727 21.6287 31.5967C21.0124 29.6206 19.6888 27.9319 17.9037 26.8437C17.9745 20.7082 15.6935 14.7718 11.5157 10.2186C11.4535 10.1501 11.3773 10.0952 11.2922 10.0576C11.2071 10.0199 11.1149 10.0003 11.0215 10H11.0287Z" fill="#4EA8DE"/>
<path d="M11.0216 26.1598C10.4715 26.1598 9.93376 25.9995 9.47611 25.699C9.01846 25.3986 8.6614 24.9715 8.44993 24.4716C8.23847 23.9716 8.18206 23.4213 8.28782 22.8898C8.39358 22.3584 8.65678 21.8697 9.04423 21.4853C9.43169 21.1009 9.92606 20.838 10.465 20.7298C11.004 20.6216 11.5634 20.6729 12.0728 20.8773C12.5822 21.0816 13.0188 21.4298 13.3275 21.8781C13.6361 22.3263 13.8031 22.8545 13.8074 23.396C13.8159 23.7469 13.7542 24.0961 13.6256 24.4235C13.4971 24.751 13.3043 25.0503 13.0582 25.3043C12.8121 25.5583 12.5176 25.7622 12.1915 25.9041C11.8654 26.0461 11.5141 26.1234 11.1576 26.1316C11.1126 26.1387 11.0666 26.1387 11.0216 26.1316V26.1598Z" fill="#4EA8DE"/>
<path d="M14.8959 37.5958C14.7167 37.5901 14.5382 37.6198 14.3708 37.683C14.2034 37.7462 14.0505 37.8416 13.9211 37.9638C13.7917 38.086 13.6884 38.2323 13.6172 38.3943C13.546 38.5563 13.5084 38.7307 13.5066 38.9072V43.067C13.5066 43.4297 13.653 43.7776 13.9135 44.0342C14.1741 44.2907 14.5274 44.4348 14.8959 44.4348C15.2644 44.4348 15.6178 44.2907 15.8783 44.0342C16.1389 43.7776 16.2852 43.4297 16.2852 43.067V38.9636C16.291 38.7877 16.2611 38.6126 16.1973 38.4482C16.1336 38.2839 16.0372 38.1337 15.9139 38.0064C15.7906 37.879 15.6428 37.7772 15.4791 37.7067C15.3154 37.6362 15.139 37.5985 14.9604 37.5958H14.8959Z" fill="#5E60CE"/>
<path d="M7.16154 37.5958C6.97931 37.5863 6.797 37.613 6.62546 37.6743C6.45392 37.7356 6.29665 37.8302 6.16302 37.9526C6.02939 38.0749 5.92213 38.2225 5.84761 38.3865C5.77309 38.5505 5.73284 38.7275 5.72925 38.9072V43.067C5.72925 43.4297 5.87562 43.7777 6.13617 44.0342C6.39672 44.2907 6.7501 44.4348 7.11857 44.4348C7.48704 44.4348 7.84042 44.2907 8.10097 44.0342C8.36152 43.7777 8.50789 43.4297 8.50789 43.067V38.9636C8.51362 38.7877 8.48373 38.6126 8.41998 38.4482C8.35623 38.2839 8.25989 38.1337 8.13658 38.0064C8.01326 37.879 7.86544 37.7772 7.70173 37.7067C7.53802 37.6362 7.36169 37.5985 7.18302 37.5958H7.16154Z" fill="#5E60CE"/>
<path d="M10.9213 37.5958C10.7426 37.592 10.5649 37.623 10.3984 37.6869C10.2318 37.7507 10.0797 37.8463 9.95068 37.9681C9.82167 38.0899 9.71828 38.2355 9.64644 38.3966C9.5746 38.5577 9.5357 38.7312 9.53198 38.9072V44.6392C9.53198 45.002 9.67836 45.3499 9.93891 45.6064C10.1995 45.8629 10.5528 46.007 10.9213 46.007C11.2898 46.007 11.6432 45.8629 11.9037 45.6064C12.1643 45.3499 12.3106 45.002 12.3106 44.6392V38.9988C12.3164 38.823 12.2865 38.6478 12.2227 38.4835C12.159 38.3191 12.0626 38.1689 11.9393 38.0416C11.816 37.9143 11.6682 37.8124 11.5045 37.7419C11.3408 37.6714 11.1644 37.6337 10.9858 37.631L10.9213 37.5958Z" fill="#5E60CE"/>
</g>
<defs>
<clipPath id="clip0_43_109">
<rect width="22" height="36" fill="white" transform="translate(0 10)"/>
</clipPath>
</defs>
</svg>
